PathFileType	4	(X/Y/Z)																																																																																																																																																																																															
DataRate	CameraRate	NumFrames	NumMarkers	Units	OrigDataRate	OrigDataStartFrame	OrigNumFrames																																																																																																																																																																																										
100	100	4	64	     mm	100	199	397																																																																																																																																																																																										
Frame#	Time	LASI			RASI			LPSI			RPSI			RTH2			RTH3			RLFC			RMFC			LTH1			LTH2			LTH3			LLFC			LMFC			RTB1			RTB2			RTB3			RLMAL			RMMAL			LTB1			LTB2			LTB3			LLMAL			LMMAL			RCAL			RTOE			RMT5			LCAL			LTOE			LMT5			LACR			RACR			CLAV			C7			LASH			LPSH			RASH			RPSH			RUA1			RUA2			RUA3			RLEL			RMEL			LUA1			LUA2			LUA3			LLEL			LMEL			RFAsuperior			RFAradius			RFAulna			LFAsuperior			LFAradius			LFAulna			RTH1			RHJC			LHJC			RKJC			LKJC			RAJC			LAJC			RSJC			LSJC			REJC			LEJC		
		X1	Y1	Z1	X2	Y2	Z2	X3	Y3	Z3	X4	Y4	Z4	X5	Y5	Z5	X6	Y6	Z6	X7	Y7	Z7	X8	Y8	Z8	X9	Y9	Z9	X10	Y10	Z10	X11	Y11	Z11	X12	Y12	Z12	X13	Y13	Z13	X14	Y14	Z14	X15	Y15	Z15	X16	Y16	Z16	X17	Y17	Z17	X18	Y18	Z18	X19	Y19	Z19	X20	Y20	Z20	X21	Y21	Z21	X22	Y22	Z22	X23	Y23	Z23	X24	Y24	Z24	X25	Y25	Z25	X26	Y26	Z26	X27	Y27	Z27	X28	Y28	Z28	X29	Y29	Z29	X30	Y30	Z30	X31	Y31	Z31	X32	Y32	Z32	X33	Y33	Z33	X34	Y34	Z34	X35	Y35	Z35	X36	Y36	Z36	X37	Y37	Z37	X38	Y38	Z38	X39	Y39	Z39	X40	Y40	Z40	X41	Y41	Z41	X42	Y42	Z42	X43	Y43	Z43	X44	Y44	Z44	X45	Y45	Z45	X46	Y46	Z46	X47	Y47	Z47	X48	Y48	Z48	X49	Y49	Z49	X50	Y50	Z50	X51	Y51	Z51	X52	Y52	Z52	X53	Y53	Z53	X54	Y54	Z54	X55	Y55	Z55	X56	Y56	Z56	X57	Y57	Z57	X58	Y58	Z58	X59	Y59	Z59	X60	Y60	Z60	X61	Y61	Z61	X62	Y62	Z62	X63	Y63	Z63	X64	Y64	Z64
																																																																																																																																																																																																	
199	1.98	629.42011	1082.65637	-361.47836	375.0231	1075.24377	-361.25324	560.26331	1126.3761	-524.38153	446.79117	1119.38782	-525.04028	342.05457	820.28607	-504.38455	333.80066	666.42041	-476.73291	335.75375	561.7923	-472.66068	450.63455	536.78009	-459.42502	690.79449	955.94403	-421.27554	658.67352	806.06244	-506.22022	674.96429	670.23444	-467.5527	672.00537	551.53339	-456.09201	563.22711	520.27551	-471.46521	374.35992	406.44455	-437.31915	318.65268	370.17023	-526.78625	379.43903	220.51305	-471.72879	331.87134	119.42373	-529.00378	421.21902	130.10866	-504.45258	640.4079	440.91284	-425.3493	689.78052	342.07461	-516.07953	648.43671	227.9684	-455.45313	680.28253	124.64628	-507.84067	593.41565	130.92232	-490.93195	388.9877	97.31414	-596.84937	373.67154	76.05699	-352.32993	287.53149	52.62318	-412.92157	618.91382	97.57874	-579.87744	645.38605	79.14703	-343.63928	735.22864	43.66118	-403.86444	632.97107	1577.26782	-493.46915	340.89072	1564.76856	-470.65985	458.84125	1528.87439	-409.49966	495.75601	1580.15466	-534.05273	645.75671	1544.49146	-431.50592	661.16736	1513.91138	-550.41217	329.61182	1526.80994	-416.87161	321.33157	1495.79053	-552.93536	244.29631	1467.22632	-531.14465	184.52432	1475.98291	-478.59348	100.64379	1418.64197	-503.41101	41.26117	1380.38135	-512.16699	79.87561	1321.09583	-463.83698	732.37622	1489.54187	-536.51044	808.54462	1497.05505	-490.42203	885.99957	1452.36987	-515.66614	957.40686	1433.45093	-506.71472	923.32831	1352.32068	-485.59055	-26.52053	1390.20593	-426.06949	-55.91931	1363.66064	-249.94479	-115.35211	1358.97961	-286.85126	1013.25513	1418.92419	-438.70447	1019.52075	1367.78723	-253.56725	1088.21716	1380.32324	-271.08383	306.50305	957.06943	-415.11304	412.43855	977.14197	-436.98949	587.63786	1000.95935	-444.99184	393.19415	549.28619	-466.04285	617.61624	535.90445	-463.77861	376.54518	124.76619	-516.72818	636.84909	127.7843	-499.38631	325.47169	1511.30023	-484.90349	653.46204	1529.20142	-490.95904	60.56839	1350.73859	-488.00198	940.36758	1392.8858	-496.15263
200	1.99	629.4491	1082.66882	-361.49112	375.02228	1075.25452	-361.26117	560.26465	1126.37647	-524.38464	446.79163	1119.38782	-525.0412	342.05655	820.28638	-504.38336	333.8273	666.45367	-476.72064	335.75363	561.79279	-472.66132	450.65225	536.77618	-459.42822	690.79449	955.94403	-421.27542	658.68445	806.03259	-506.25757	674.97424	670.23151	-467.52423	672.00543	551.53339	-456.09219	563.1864	520.20673	-471.70853	374.37119	406.42517	-437.31186	318.62012	370.15695	-526.76495	379.44705	220.53644	-471.72781	331.88968	119.41999	-529.0108	421.23163	130.09125	-504.46137	640.41193	440.88196	-425.35895	689.78522	342.08298	-516.10577	648.44153	227.98492	-455.48007	680.27002	124.64536	-507.82843	593.41229	130.92329	-490.93545	389.19138	97.34347	-597.09051	373.68591	76.062	-352.34229	287.53122	52.64828	-412.89334	618.91187	97.60917	-579.90063	645.39252	79.13837	-343.63711	735.23962	43.66243	-403.84628	632.95563	1577.26428	-493.53684	340.82019	1564.81397	-470.6329	458.78864	1528.88745	-409.54312	495.70929	1580.15772	-534.10608	645.72687	1544.57056	-431.78412	661.14093	1513.89648	-550.48029	329.60904	1526.76856	-416.8707	321.26666	1495.72205	-552.97101	244.23222	1467.22888	-531.13348	184.48451	1475.95544	-478.58102	100.63346	1418.62952	-503.41464	41.27269	1380.33447	-512.19098	79.86808	1321.03381	-463.8295	732.31775	1489.55652	-536.51819	808.50964	1497.05664	-490.4592	885.94946	1452.37402	-515.72571	957.37622	1433.45703	-506.80652	923.30707	1352.32251	-485.64615	-26.56646	1390.18701	-426.03992	-55.93299	1363.63977	-249.91798	-115.39972	1359.0249	-286.81729	1013.23108	1418.91834	-438.77368	1019.49329	1367.77893	-253.62903	1088.24146	1380.36621	-271.11868	306.51518	957.07344	-415.09876	412.44875	977.14684	-436.98422	587.64718	1000.96712	-445.00096	393.20294	549.28448	-466.04477	617.59592	535.87006	-463.90036	376.56065	124.75562	-516.73608	636.84116	127.78432	-499.38194	325.43785	1511.2453	-484.92085	653.4339	1529.23352	-491.1322	60.57039	1350.68414	-488.01024	940.34164	1392.88977	-496.22633
201	2	629.46051	1082.672	-361.53241	375.02228	1075.25452	-361.26123	560.2511	1126.37866	-524.40454	446.79147	1119.38782	-525.04083	342.03922	820.26532	-504.40234	333.79974	666.42035	-476.7319	335.75369	561.79273	-472.66113	450.64905	536.76776	-459.45139	690.78662	955.94312	-421.34869	658.65863	806.06549	-506.2428	674.96429	670.23444	-467.55249	672.00543	551.51917	-456.09463	563.1828	520.24304	-471.70813	374.3559	406.42142	-437.33463	318.68234	370.18454	-526.8103	379.44708	220.53658	-471.72772	331.87595	119.40235	-528.99963	421.19751	130.06764	-504.42618	640.43701	440.89926	-425.36319	689.77527	342.08221	-516.12482	648.45819	227.99805	-455.52881	680.29138	124.66462	-507.85486	593.4151	130.92563	-490.94528	388.97141	97.30592	-596.8606	373.68808	76.05396	-352.31415	287.56128	52.73883	-412.83002	618.92053	97.58372	-579.87341	645.38916	79.15716	-343.64264	735.23969	43.66246	-403.84625	632.90381	1577.28674	-493.53931	340.79453	1564.78711	-470.66211	458.77679	1528.88147	-409.58606	495.67825	1580.15759	-534.10406	645.59937	1544.55225	-431.91888	661.08386	1513.89356	-550.52112	329.57068	1526.82764	-416.86984	321.24576	1495.72388	-553.01398	244.23341	1467.22827	-531.29144	184.45471	1475.97815	-478.61304	100.60173	1418.58838	-503.3978	41.24418	1380.28076	-512.17047	79.83092	1321.00049	-463.86563	732.30402	1489.54065	-536.56793	808.47888	1497.06409	-490.50998	885.91431	1452.36975	-515.79248	957.33441	1433.42639	-506.84985	923.26862	1352.30383	-485.69232	-26.59252	1390.12695	-426.04437	-56.12255	1363.63477	-249.81483	-115.38341	1358.95117	-286.83227	1013.18225	1418.90564	-438.82687	1019.45093	1367.7832	-253.6945	1088.21753	1380.38989	-271.1124	306.51551	957.07722	-415.10211	412.44742	977.14973	-436.9957	587.64524	1000.96814	-445.02603	393.20137	549.28024	-466.05626	617.59412	535.8811	-463.90138	376.53673	124.735	-516.71291	636.85324	127.79512	-499.40007	325.40822	1511.27576	-484.94191	653.34161	1529.2229	-491.22	60.53755	1350.64063	-488.01805	940.30151	1392.86511	-496.27109
202	2.01	629.48755	1082.66773	-361.56052	375.02228	1075.25452	-361.26123	560.14868	1126.53088	-524.03955	446.7792	1119.39014	-525.06335	341.99689	820.28485	-504.36252	333.81024	666.41675	-476.68845	335.73932	561.76855	-472.63409	450.64905	536.7677	-459.45157	690.77863	955.9541	-421.37439	658.70392	806.05585	-506.33139	674.97552	670.24304	-467.57105	672.00745	551.53363	-456.14652	563.22986	520.2721	-471.4899	374.37955	406.41592	-437.30429	318.68307	370.15949	-526.77698	379.43903	220.51312	-471.72873	331.87326	119.42577	-529.00287	421.22049	130.09183	-504.45322	640.40979	440.89477	-425.40924	689.76111	342.04407	-516.13501	648.47125	227.97911	-455.49411	680.27417	124.65691	-507.82147	593.3869	130.92386	-490.93655	388.96844	97.30475	-596.82642	373.69525	76.06789	-352.3523	287.56564	52.68218	-412.88495	618.92029	97.5835	-579.87286	645.39221	79.13998	-343.64526	735.24353	43.66963	-403.8717	632.89477	1577.28174	-493.64923	340.74515	1564.77991	-470.67352	458.77106	1528.87378	-409.63077	495.61081	1580.14148	-534.15497	645.58398	1544.56348	-431.96143	661.05243	1513.92798	-550.5448	329.56873	1526.78711	-416.91205	321.14383	1495.69275	-552.8728	244.21182	1467.20081	-531.30505	184.52351	1475.75501	-478.67627	100.57206	1418.51233	-503.37647	41.21137	1380.23535	-512.15527	79.80536	1320.94299	-463.82294	732.25836	1489.55872	-536.64179	808.42731	1497.05627	-490.5824	885.88306	1452.32935	-515.84235	957.31122	1433.42798	-506.90231	923.23029	1352.30737	-485.75446	-26.61644	1390.05383	-426.06195	-56.13048	1363.62537	-249.81528	-115.41957	1358.89758	-286.79657	1013.14215	1418.91077	-438.8754	1019.39581	1367.78931	-253.70154	1088.19043	1380.38025	-271.18927	306.51226	957.0897	-415.07461	412.43454	977.18425	-436.997	587.62854	1001.01829	-445.08191	393.19418	549.26813	-466.04283	617.61865	535.90286	-463.81821	376.54688	124.7588	-516.72804	636.83054	127.79038	-499.37901	325.35628	1511.23993	-484.89243	653.31821	1529.24573	-491.25311	60.50836	1350.58917	-487.98911	940.27075	1392.86768	-496.32838
